<mxfile host="app.diagrams.net" modified="2023-05-31T09:56:01.741Z" agent="Mozilla/5.0 (X11; Linux x86_64) AppleWebKit/537.36 (KHTML, like Gecko) Chrome/113.0.0.0 Safari/537.36" etag="85mkCyo2nmsFmlnepZOc" version="21.1.1" type="device">
  <diagram name="Page-1" id="_yb1kxqVBDv6BcuX3U_5">
    <mxGraphModel dx="1434" dy="761" grid="1" gridSize="10" guides="1" tooltips="1" connect="1" arrows="1" fold="1" page="1" pageScale="1" pageWidth="827" pageHeight="1169" math="0" shadow="0">
      <root>
        <mxCell id="0" />
        <mxCell id="1" parent="0" />
        <mxCell id="DuwOyWa9NaO9LJ8dMpyN-1" value="" style="rounded=1;whiteSpace=wrap;html=1;" vertex="1" parent="1">
          <mxGeometry x="10" y="330" width="120" height="60" as="geometry" />
        </mxCell>
        <mxCell id="DuwOyWa9NaO9LJ8dMpyN-2" value="User" style="text;html=1;strokeColor=none;fillColor=none;align=center;verticalAlign=middle;whiteSpace=wrap;rounded=0;" vertex="1" parent="1">
          <mxGeometry x="40" y="345" width="60" height="30" as="geometry" />
        </mxCell>
        <mxCell id="DuwOyWa9NaO9LJ8dMpyN-3" value="" style="rounded=1;whiteSpace=wrap;html=1;" vertex="1" parent="1">
          <mxGeometry x="150" y="330" width="120" height="60" as="geometry" />
        </mxCell>
        <mxCell id="DuwOyWa9NaO9LJ8dMpyN-4" value="Website" style="text;html=1;strokeColor=none;fillColor=none;align=center;verticalAlign=middle;whiteSpace=wrap;rounded=0;" vertex="1" parent="1">
          <mxGeometry x="180" y="345" width="60" height="30" as="geometry" />
        </mxCell>
        <mxCell id="DuwOyWa9NaO9LJ8dMpyN-5" value="" style="rounded=1;whiteSpace=wrap;html=1;" vertex="1" parent="1">
          <mxGeometry x="240" y="195" width="120" height="60" as="geometry" />
        </mxCell>
        <mxCell id="DuwOyWa9NaO9LJ8dMpyN-6" value="Blob Storage" style="text;html=1;strokeColor=none;fillColor=none;align=center;verticalAlign=middle;whiteSpace=wrap;rounded=0;" vertex="1" parent="1">
          <mxGeometry x="270" y="210" width="60" height="30" as="geometry" />
        </mxCell>
        <mxCell id="DuwOyWa9NaO9LJ8dMpyN-9" value="" style="ellipse;shape=cloud;whiteSpace=wrap;html=1;" vertex="1" parent="1">
          <mxGeometry x="400" y="80" width="120" height="80" as="geometry" />
        </mxCell>
        <mxCell id="DuwOyWa9NaO9LJ8dMpyN-10" value="Process Function" style="text;html=1;strokeColor=none;fillColor=none;align=center;verticalAlign=middle;whiteSpace=wrap;rounded=0;" vertex="1" parent="1">
          <mxGeometry x="430" y="105" width="60" height="30" as="geometry" />
        </mxCell>
        <mxCell id="DuwOyWa9NaO9LJ8dMpyN-11" value="" style="ellipse;shape=cloud;whiteSpace=wrap;html=1;" vertex="1" parent="1">
          <mxGeometry x="414" y="420" width="120" height="80" as="geometry" />
        </mxCell>
        <mxCell id="DuwOyWa9NaO9LJ8dMpyN-12" value="Register &lt;br&gt;User&lt;br&gt;Function" style="text;html=1;strokeColor=none;fillColor=none;align=center;verticalAlign=middle;whiteSpace=wrap;rounded=0;" vertex="1" parent="1">
          <mxGeometry x="444" y="445" width="60" height="30" as="geometry" />
        </mxCell>
        <mxCell id="DuwOyWa9NaO9LJ8dMpyN-13" value="" style="ellipse;shape=cloud;whiteSpace=wrap;html=1;" vertex="1" parent="1">
          <mxGeometry x="414" y="300" width="120" height="80" as="geometry" />
        </mxCell>
        <mxCell id="DuwOyWa9NaO9LJ8dMpyN-14" value="List Function" style="text;html=1;strokeColor=none;fillColor=none;align=center;verticalAlign=middle;whiteSpace=wrap;rounded=0;" vertex="1" parent="1">
          <mxGeometry x="444" y="325" width="60" height="30" as="geometry" />
        </mxCell>
        <mxCell id="DuwOyWa9NaO9LJ8dMpyN-15" value="" style="ellipse;shape=cloud;whiteSpace=wrap;html=1;" vertex="1" parent="1">
          <mxGeometry x="580" y="320" width="120" height="80" as="geometry" />
        </mxCell>
        <mxCell id="DuwOyWa9NaO9LJ8dMpyN-16" value="Send Emails&lt;br&gt;Function" style="text;html=1;strokeColor=none;fillColor=none;align=center;verticalAlign=middle;whiteSpace=wrap;rounded=0;" vertex="1" parent="1">
          <mxGeometry x="610" y="345" width="60" height="30" as="geometry" />
        </mxCell>
        <mxCell id="DuwOyWa9NaO9LJ8dMpyN-17" value="" style="rounded=1;whiteSpace=wrap;html=1;" vertex="1" parent="1">
          <mxGeometry x="400" y="210" width="120" height="60" as="geometry" />
        </mxCell>
        <mxCell id="DuwOyWa9NaO9LJ8dMpyN-18" value="Photo Info Table" style="text;html=1;strokeColor=none;fillColor=none;align=center;verticalAlign=middle;whiteSpace=wrap;rounded=0;" vertex="1" parent="1">
          <mxGeometry x="430" y="225" width="60" height="30" as="geometry" />
        </mxCell>
        <mxCell id="DuwOyWa9NaO9LJ8dMpyN-19" value="" style="rounded=1;whiteSpace=wrap;html=1;" vertex="1" parent="1">
          <mxGeometry x="560" y="490" width="120" height="60" as="geometry" />
        </mxCell>
        <mxCell id="DuwOyWa9NaO9LJ8dMpyN-20" value="Users Table" style="text;html=1;strokeColor=none;fillColor=none;align=center;verticalAlign=middle;whiteSpace=wrap;rounded=0;" vertex="1" parent="1">
          <mxGeometry x="590" y="505" width="60" height="30" as="geometry" />
        </mxCell>
        <mxCell id="DuwOyWa9NaO9LJ8dMpyN-22" value="" style="rounded=1;whiteSpace=wrap;html=1;" vertex="1" parent="1">
          <mxGeometry x="570" y="220" width="120" height="60" as="geometry" />
        </mxCell>
        <mxCell id="DuwOyWa9NaO9LJ8dMpyN-23" value="Send Email Queue" style="text;html=1;strokeColor=none;fillColor=none;align=center;verticalAlign=middle;whiteSpace=wrap;rounded=0;" vertex="1" parent="1">
          <mxGeometry x="600" y="235" width="60" height="30" as="geometry" />
        </mxCell>
        <mxCell id="DuwOyWa9NaO9LJ8dMpyN-24" value="" style="endArrow=classic;html=1;rounded=0;exitX=1;exitY=0;exitDx=0;exitDy=0;entryX=0.5;entryY=1;entryDx=0;entryDy=0;" edge="1" parent="1" source="DuwOyWa9NaO9LJ8dMpyN-3" target="DuwOyWa9NaO9LJ8dMpyN-5">
          <mxGeometry width="50" height="50" relative="1" as="geometry">
            <mxPoint x="390" y="380" as="sourcePoint" />
            <mxPoint x="440" y="330" as="targetPoint" />
          </mxGeometry>
        </mxCell>
        <mxCell id="DuwOyWa9NaO9LJ8dMpyN-25" value="" style="endArrow=classic;html=1;rounded=0;exitX=1;exitY=0.25;exitDx=0;exitDy=0;entryX=0.092;entryY=0.625;entryDx=0;entryDy=0;entryPerimeter=0;" edge="1" parent="1" source="DuwOyWa9NaO9LJ8dMpyN-3" target="DuwOyWa9NaO9LJ8dMpyN-13">
          <mxGeometry width="50" height="50" relative="1" as="geometry">
            <mxPoint x="390" y="380" as="sourcePoint" />
            <mxPoint x="440" y="330" as="targetPoint" />
          </mxGeometry>
        </mxCell>
        <mxCell id="DuwOyWa9NaO9LJ8dMpyN-26" value="" style="endArrow=classic;html=1;rounded=0;exitX=1;exitY=0.5;exitDx=0;exitDy=0;entryX=0.07;entryY=0.4;entryDx=0;entryDy=0;entryPerimeter=0;" edge="1" parent="1" source="DuwOyWa9NaO9LJ8dMpyN-3" target="DuwOyWa9NaO9LJ8dMpyN-11">
          <mxGeometry width="50" height="50" relative="1" as="geometry">
            <mxPoint x="390" y="380" as="sourcePoint" />
            <mxPoint x="440" y="330" as="targetPoint" />
          </mxGeometry>
        </mxCell>
        <mxCell id="DuwOyWa9NaO9LJ8dMpyN-28" value="" style="endArrow=classic;html=1;rounded=0;exitX=1;exitY=0.5;exitDx=0;exitDy=0;entryX=0.07;entryY=0.4;entryDx=0;entryDy=0;entryPerimeter=0;" edge="1" parent="1" source="DuwOyWa9NaO9LJ8dMpyN-5" target="DuwOyWa9NaO9LJ8dMpyN-9">
          <mxGeometry width="50" height="50" relative="1" as="geometry">
            <mxPoint x="390" y="380" as="sourcePoint" />
            <mxPoint x="440" y="330" as="targetPoint" />
          </mxGeometry>
        </mxCell>
        <mxCell id="DuwOyWa9NaO9LJ8dMpyN-29" value="" style="endArrow=classic;html=1;rounded=0;exitX=0.96;exitY=0.7;exitDx=0;exitDy=0;exitPerimeter=0;entryX=0;entryY=0.5;entryDx=0;entryDy=0;" edge="1" parent="1" source="DuwOyWa9NaO9LJ8dMpyN-9" target="DuwOyWa9NaO9LJ8dMpyN-22">
          <mxGeometry width="50" height="50" relative="1" as="geometry">
            <mxPoint x="390" y="380" as="sourcePoint" />
            <mxPoint x="440" y="330" as="targetPoint" />
          </mxGeometry>
        </mxCell>
        <mxCell id="DuwOyWa9NaO9LJ8dMpyN-30" value="" style="endArrow=classic;html=1;rounded=0;exitX=0.5;exitY=1;exitDx=0;exitDy=0;entryX=0.4;entryY=0.1;entryDx=0;entryDy=0;entryPerimeter=0;" edge="1" parent="1" source="DuwOyWa9NaO9LJ8dMpyN-22" target="DuwOyWa9NaO9LJ8dMpyN-15">
          <mxGeometry width="50" height="50" relative="1" as="geometry">
            <mxPoint x="390" y="380" as="sourcePoint" />
            <mxPoint x="440" y="330" as="targetPoint" />
          </mxGeometry>
        </mxCell>
        <mxCell id="DuwOyWa9NaO9LJ8dMpyN-32" value="" style="endArrow=classic;html=1;rounded=0;exitX=0.96;exitY=0.7;exitDx=0;exitDy=0;exitPerimeter=0;entryX=0;entryY=0.25;entryDx=0;entryDy=0;" edge="1" parent="1" source="DuwOyWa9NaO9LJ8dMpyN-11" target="DuwOyWa9NaO9LJ8dMpyN-19">
          <mxGeometry width="50" height="50" relative="1" as="geometry">
            <mxPoint x="390" y="380" as="sourcePoint" />
            <mxPoint x="440" y="330" as="targetPoint" />
          </mxGeometry>
        </mxCell>
        <mxCell id="DuwOyWa9NaO9LJ8dMpyN-33" value="" style="endArrow=classic;html=1;rounded=0;exitX=0.5;exitY=0;exitDx=0;exitDy=0;entryX=0.31;entryY=0.8;entryDx=0;entryDy=0;entryPerimeter=0;" edge="1" parent="1" source="DuwOyWa9NaO9LJ8dMpyN-19" target="DuwOyWa9NaO9LJ8dMpyN-15">
          <mxGeometry width="50" height="50" relative="1" as="geometry">
            <mxPoint x="390" y="380" as="sourcePoint" />
            <mxPoint x="440" y="330" as="targetPoint" />
          </mxGeometry>
        </mxCell>
        <mxCell id="DuwOyWa9NaO9LJ8dMpyN-35" value="" style="endArrow=classic;html=1;rounded=0;exitX=0.483;exitY=1;exitDx=0;exitDy=0;exitPerimeter=0;entryX=0.5;entryY=0;entryDx=0;entryDy=0;" edge="1" parent="1" source="DuwOyWa9NaO9LJ8dMpyN-9" target="DuwOyWa9NaO9LJ8dMpyN-17">
          <mxGeometry width="50" height="50" relative="1" as="geometry">
            <mxPoint x="390" y="380" as="sourcePoint" />
            <mxPoint x="440" y="330" as="targetPoint" />
          </mxGeometry>
        </mxCell>
        <mxCell id="DuwOyWa9NaO9LJ8dMpyN-36" value="" style="endArrow=classic;html=1;rounded=0;exitX=0.5;exitY=1;exitDx=0;exitDy=0;entryX=0.4;entryY=0.1;entryDx=0;entryDy=0;entryPerimeter=0;" edge="1" parent="1" source="DuwOyWa9NaO9LJ8dMpyN-17" target="DuwOyWa9NaO9LJ8dMpyN-13">
          <mxGeometry width="50" height="50" relative="1" as="geometry">
            <mxPoint x="390" y="380" as="sourcePoint" />
            <mxPoint x="440" y="330" as="targetPoint" />
          </mxGeometry>
        </mxCell>
        <mxCell id="DuwOyWa9NaO9LJ8dMpyN-37" value="" style="endArrow=classic;html=1;rounded=0;exitX=1;exitY=0.5;exitDx=0;exitDy=0;entryX=0;entryY=0.5;entryDx=0;entryDy=0;" edge="1" parent="1" source="DuwOyWa9NaO9LJ8dMpyN-1" target="DuwOyWa9NaO9LJ8dMpyN-3">
          <mxGeometry width="50" height="50" relative="1" as="geometry">
            <mxPoint x="390" y="380" as="sourcePoint" />
            <mxPoint x="440" y="330" as="targetPoint" />
          </mxGeometry>
        </mxCell>
        <mxCell id="DuwOyWa9NaO9LJ8dMpyN-39" value="" style="ellipse;shape=cloud;whiteSpace=wrap;html=1;fillColor=#dae8fc;strokeColor=#6c8ebf;" vertex="1" parent="1">
          <mxGeometry x="530" y="10" width="120" height="80" as="geometry" />
        </mxCell>
        <mxCell id="DuwOyWa9NaO9LJ8dMpyN-40" value="Azure Cognitive Services" style="text;html=1;strokeColor=none;fillColor=none;align=center;verticalAlign=middle;whiteSpace=wrap;rounded=0;" vertex="1" parent="1">
          <mxGeometry x="560" y="35" width="60" height="30" as="geometry" />
        </mxCell>
        <mxCell id="DuwOyWa9NaO9LJ8dMpyN-43" value="" style="ellipse;shape=cloud;whiteSpace=wrap;html=1;fillColor=#dae8fc;strokeColor=#6c8ebf;" vertex="1" parent="1">
          <mxGeometry x="680" y="145" width="140" height="95" as="geometry" />
        </mxCell>
        <mxCell id="DuwOyWa9NaO9LJ8dMpyN-44" value="Azure Email Communication Service" style="text;html=1;strokeColor=none;fillColor=none;align=center;verticalAlign=middle;whiteSpace=wrap;rounded=0;" vertex="1" parent="1">
          <mxGeometry x="720" y="180" width="60" height="30" as="geometry" />
        </mxCell>
        <mxCell id="DuwOyWa9NaO9LJ8dMpyN-46" value="" style="endArrow=classic;html=1;rounded=0;exitX=0.108;exitY=0.65;exitDx=0;exitDy=0;exitPerimeter=0;entryX=0.88;entryY=0.25;entryDx=0;entryDy=0;entryPerimeter=0;" edge="1" parent="1" source="DuwOyWa9NaO9LJ8dMpyN-39" target="DuwOyWa9NaO9LJ8dMpyN-9">
          <mxGeometry width="50" height="50" relative="1" as="geometry">
            <mxPoint x="400" y="300" as="sourcePoint" />
            <mxPoint x="450" y="250" as="targetPoint" />
          </mxGeometry>
        </mxCell>
        <mxCell id="DuwOyWa9NaO9LJ8dMpyN-47" value="" style="endArrow=classic;html=1;rounded=0;exitX=0.55;exitY=0.95;exitDx=0;exitDy=0;exitPerimeter=0;entryX=0.96;entryY=0.7;entryDx=0;entryDy=0;entryPerimeter=0;" edge="1" parent="1" source="DuwOyWa9NaO9LJ8dMpyN-43" target="DuwOyWa9NaO9LJ8dMpyN-15">
          <mxGeometry width="50" height="50" relative="1" as="geometry">
            <mxPoint x="400" y="300" as="sourcePoint" />
            <mxPoint x="450" y="250" as="targetPoint" />
          </mxGeometry>
        </mxCell>
      </root>
    </mxGraphModel>
  </diagram>
</mxfile>
